<svg width="79" height="80" viewBox="0 0 79 80" fill="none" xmlns="http://www.w3.org/2000/svg">
<g clip-path="url(#clip0_3_2)">
<path d="M72.0755 45.3333C72.7943 45.3333 73.3752 44.7359 73.3752 44V38.6667C73.3752 37.9308 72.7943 37.3334 72.0755 37.3334H65.5767V36C65.5767 35.2641 64.9958 34.6667 64.277 34.6667C63.5582 34.6667 62.9773 35.2641 62.9773 36V37.3333H26.5844V36C26.5844 35.2641 26.0021 34.6667 25.2847 34.6667C24.5673 34.6667 23.985 35.2641 23.985 36V37.3333H17.4862C16.7688 37.3333 16.1865 37.9306 16.1865 38.6666V44C16.1865 44.7359 16.7688 45.3333 17.4862 45.3333H25.2847H64.2772H72.0755V45.3333ZM18.7859 42.6667V40H70.7758V42.6667H18.7859Z" fill="#D4C17F"/>
<path d="M47.3803 29.3333C45.2787 29.3333 43.9204 30.9719 43.7722 31.16C43.3224 31.7267 43.4057 32.5547 43.9554 33.0214C44.5065 33.4894 45.3215 33.4081 45.7829 32.8508C45.788 32.8414 46.4925 32.0002 47.3802 32.0002C48.2679 32.0002 48.9711 32.8416 48.9711 32.8416C49.2285 33.1656 49.6028 33.3336 49.9809 33.3336C50.2694 33.3336 50.5581 33.2362 50.7998 33.035C51.3574 32.5709 51.4406 31.7309 50.9882 31.1603C50.8403 30.972 49.482 29.3333 47.3803 29.3333Z" fill="#D4C17F"/>
<path d="M72.0755 56C72.7943 56 73.3752 55.4027 73.3752 54.6667V49.3334C73.3752 48.5975 72.7943 48.0002 72.0755 48.0002H65.5767V46.6669C65.5767 45.9309 64.9958 45.3336 64.277 45.3336C63.5582 45.3336 62.9773 45.9309 62.9773 46.6669V48.0002H26.5844V46.6669C26.5844 45.9309 26.0021 45.3336 25.2847 45.3336C24.5673 45.3336 23.985 45.9309 23.985 46.6669V48.0002H17.4862C16.7688 48.0002 16.1865 48.5975 16.1865 49.3334V54.6667C16.1865 55.4027 16.7688 56 17.4862 56H25.2847H64.2772H72.0755ZM18.7859 53.3333V50.6666H70.7758V53.3333H18.7859Z" fill="#D4C17F"/>
<path d="M54.1702 26.1733C54.4276 26.4986 54.8019 26.6666 55.18 26.6666C55.4685 26.6666 55.7572 26.5692 55.9989 26.368C56.5565 25.9039 56.6397 25.0639 56.1873 24.4933C56.0391 24.3053 54.6809 22.6666 52.5791 22.6666C50.4773 22.6666 49.1192 24.3052 48.971 24.4933C48.5212 25.06 48.6045 25.888 49.1542 26.3547C49.7053 26.8241 50.5203 26.7414 50.9803 26.1841C50.9868 26.1747 51.6913 25.3334 52.579 25.3334C53.4671 25.3333 54.1702 26.1733 54.1702 26.1733Z" fill="#D4C17F"/>
<path d="M1.89573 17.4667C1.96199 18.1481 2.52098 18.6667 3.18903 18.6667H10.9875C11.6556 18.6667 12.2144 18.1481 12.2808 17.4667L13.5805 4.13344C13.6169 3.7575 13.4974 3.38547 13.2505 3.10547C13.0048 2.82672 12.6552 2.66688 12.2874 2.66688H8.38797V1.33328C8.38797 0.597344 7.80568 0 7.08828 0C6.37088 0 5.78858 0.597344 5.78858 1.33328V2.66656H1.88933C1.5215 2.66656 1.17193 2.82656 0.926251 3.10516C0.67935 3.38516 0.559783 3.75719 0.596186 4.13312L1.89573 17.4667ZM10.851 5.33328L9.8112 16H4.3652L3.32535 5.33328H10.851V5.33328Z" fill="#D4C17F"/>
<path d="M36.9823 30.6667C36.9823 32.1573 37.5763 33.5441 38.655 34.5694C38.9045 34.8067 39.2218 34.9253 39.5389 34.9253C39.8872 34.9253 40.2356 34.7813 40.4916 34.4986C40.979 33.9586 40.9492 33.1145 40.4228 32.6133C39.8795 32.0986 39.5818 31.4066 39.5818 30.6666C39.5818 29.5625 40.2668 28.5613 41.2884 28.1759C41.7121 28.0159 42.0241 27.6413 42.1124 27.1866C42.2021 26.7319 42.0525 26.2625 41.7225 25.9466C41.1792 25.4319 40.8815 24.7398 40.8815 23.9998C40.8815 22.6131 41.9461 21.4531 43.3043 21.3572C43.8034 21.3225 44.2375 20.9986 44.4233 20.5225C44.6079 20.0466 44.5117 19.5039 44.1738 19.1266C43.7268 18.6266 43.4811 17.9892 43.4811 17.3333C43.4811 15.9466 44.5456 14.7866 45.9038 14.6906C46.4029 14.6559 46.837 14.332 47.0229 13.8559C47.2075 13.38 47.1112 12.8373 46.7734 12.46C46.3275 11.96 46.0806 11.3227 46.0806 10.6667C46.0806 9.47469 46.8722 8.42266 48.0042 8.10813C48.3643 8.00813 48.6631 7.75609 48.8282 7.41609C48.9946 7.07609 49.0103 6.6775 48.8712 6.32547C48.7451 5.99875 48.6802 5.66547 48.6802 5.33344C48.6802 3.86281 49.846 2.66672 51.2797 2.66672C52.7133 2.66672 53.8793 3.86266 53.8793 5.33344C53.8793 5.66547 53.8142 5.99875 53.6883 6.32547C53.5492 6.6775 53.5648 7.07609 53.7312 7.41609C53.8963 7.75609 54.1952 8.00813 54.5553 8.10813C55.6874 8.42281 56.4788 9.47484 56.4788 10.6667C56.4788 11.3227 56.2319 11.96 55.7861 12.46C55.4481 12.8373 55.352 13.38 55.5366 13.8559C55.7224 14.3319 56.1565 14.6559 56.6557 14.6906C58.0139 14.7866 59.0784 15.9466 59.0784 17.3333C59.0784 17.9892 58.8315 18.6266 58.3857 19.1266C58.0477 19.5039 57.9516 20.0466 58.1362 20.5225C58.322 20.9984 58.7561 21.3225 59.2552 21.3572C60.6134 21.4531 61.6779 22.6131 61.6779 23.9998C61.6779 24.7398 61.3803 25.4319 60.837 25.9466C60.5069 26.2625 60.3574 26.7319 60.4471 27.1866C60.5354 27.6413 60.8474 28.0159 61.2725 28.1759C62.2928 28.5613 62.9778 29.5627 62.9778 30.6666C62.9778 31.4025 63.5587 31.9998 64.2775 31.9998C64.9962 31.9998 65.5772 31.4025 65.5772 30.6666C65.5772 29.0425 64.8429 27.5319 63.6484 26.5372C64.0592 25.7678 64.2775 24.9025 64.2775 23.9998C64.2775 21.9145 63.0817 20.0825 61.3375 19.2158C61.5611 18.6184 61.6781 17.9811 61.6781 17.3331C61.6781 15.2478 60.4823 13.4158 58.7381 12.5491C58.9617 11.9517 59.0787 11.3144 59.0787 10.6664C59.0787 8.72234 58.0362 6.96641 56.4324 6.03703C56.4636 5.80375 56.4791 5.56906 56.4791 5.33297C56.4785 2.39203 54.1469 0 51.2796 0C48.4123 0 46.0806 2.39203 46.0806 5.33328C46.0806 5.56922 46.0962 5.80391 46.1274 6.03734C44.5235 6.96672 43.4811 8.72266 43.4811 10.6667C43.4811 11.3147 43.5981 11.952 43.8217 12.5494C42.0774 13.4161 40.8817 15.248 40.8817 17.3334C40.8817 17.9814 40.9987 18.6188 41.2223 19.2161C39.478 20.0828 38.2823 21.9147 38.2823 24.0002C38.2823 24.9028 38.5007 25.7681 38.9114 26.5375C37.7168 27.532 36.9823 29.0427 36.9823 30.6667Z" fill="#D4C17F"/>
<path d="M49.4847 18.5614C50.145 18.8414 50.9053 18.5187 51.1823 17.8414C51.2069 17.7773 51.2433 17.7067 51.2797 17.6373C51.3161 17.7041 51.35 17.7733 51.3746 17.8359C51.5799 18.3533 52.0661 18.668 52.5794 18.668C52.7432 18.668 52.9083 18.6359 53.0681 18.568C53.7335 18.292 54.0546 17.5133 53.7842 16.832C53.64 16.4706 52.8472 14.6667 51.2796 14.6667C49.7121 14.6667 48.9192 16.4708 48.7749 16.832C48.5059 17.5106 48.8244 18.2814 49.4847 18.5614Z" fill="#D4C17F"/>
<path d="M77.2746 77.3333H56.4785C55.7597 77.3333 55.1788 77.9306 55.1788 78.6666C55.1788 79.4025 55.7597 79.9998 56.4785 79.9998H77.2744C77.9932 79.9998 78.5741 79.4025 78.5741 78.6666C78.5741 77.9306 77.9934 77.3333 77.2746 77.3333Z" fill="#D4C17F"/>
<path d="M77.2746 58.6667H65.5769V57.3334C65.5769 56.5975 64.9959 56.0002 64.2772 56.0002C63.5584 56.0002 62.9775 56.5975 62.9775 57.3334V58.6667H26.5844V57.3334C26.5844 56.5975 26.0021 56.0002 25.2847 56.0002C24.5673 56.0002 23.985 56.5975 23.985 57.3334V58.6667H12.2871C11.5697 58.6667 10.9874 59.2641 10.9874 60V65.3333C10.9874 66.0692 11.5697 66.6666 12.2871 66.6666H16.1864V73.3333C16.1864 74.0692 16.7687 74.6666 17.4861 74.6666C18.2035 74.6666 18.7858 74.0692 18.7858 73.3333V66.6666H70.7758V73.3333C70.7758 74.0692 71.3567 74.6666 72.0755 74.6666C72.7943 74.6666 73.3752 74.0692 73.3752 73.3333V66.6666H77.2744C77.9932 66.6666 78.5741 66.0692 78.5741 65.3333V60C78.5743 59.2641 77.9934 58.6667 77.2746 58.6667ZM75.9747 64H13.5868V61.3333H75.9747V64Z" fill="#D4C17F"/>
<path d="M20.0856 77.3333H8.38791V22.6667C8.38791 21.9308 7.80561 21.3334 7.08821 21.3334C6.37081 21.3334 5.78851 21.9308 5.78851 22.6667V77.3334H1.88927C1.17187 77.3334 0.589569 77.9308 0.589569 78.6667C0.589569 79.4027 1.17171 80 1.88911 80H20.0856C20.803 80 21.3853 79.4027 21.3853 78.6667C21.3853 77.9308 20.803 77.3333 20.0856 77.3333Z" fill="#D4C17F"/>
<path d="M51.2796 77.3333H48.68C47.9613 77.3333 47.3803 77.9306 47.3803 78.6666C47.3803 79.4025 47.9613 79.9998 48.68 79.9998H51.2796C51.9984 79.9998 52.5793 79.4025 52.5793 78.6666C52.5793 77.9306 51.9984 77.3333 51.2796 77.3333Z" fill="#D4C17F"/>
<path d="M40.8816 77.3333H27.8841C27.1667 77.3333 26.5844 77.9306 26.5844 78.6666C26.5844 79.4025 27.1667 80 27.8841 80H40.8816C41.6003 80 42.1813 79.4027 42.1813 78.6667C42.1813 77.9308 41.6003 77.3333 40.8816 77.3333Z" fill="#D4C17F"/>
</g>
<defs>
<clipPath id="clip0_3_2">
<rect width="77.9849" height="80" fill="white" transform="translate(0.589417)"/>
</clipPath>
</defs>
</svg>
