<svg width="79" height="80" viewBox="0 0 79 80" fill="none" xmlns="http://www.w3.org/2000/svg">
<g clip-path="url(#clip0_5_62)">
<path d="M20.0655 68.0011H1.86897C1.1502 68.0011 0.569275 68.5984 0.569275 69.3344C0.569275 70.0703 1.1502 70.6676 1.86897 70.6676H20.0655C20.7843 70.6676 21.3652 70.0703 21.3652 69.3344C21.3652 68.5984 20.7843 68.0011 20.0655 68.0011Z" fill="#D4C17F"/>
<path d="M16.1662 65.3317C24.7667 65.3317 31.7632 58.153 31.7632 49.3317C31.7632 44.9144 30.0462 40.8011 26.9282 37.749C26.4109 37.2423 25.5855 37.2623 25.0903 37.7931C24.5952 38.3264 24.6147 39.1705 25.1333 39.6784C27.7315 42.2225 29.1638 45.649 29.1638 49.3317C29.1638 56.6837 23.3331 62.665 16.1664 62.665C8.99971 62.665 3.16897 56.6836 3.16897 49.3317C3.16897 41.9784 8.99971 35.9984 16.1664 35.9984C16.8852 35.9984 17.4661 35.4011 17.4661 34.6651C17.4661 33.9278 16.8852 33.3319 16.1664 33.3319C7.56598 33.3319 0.569427 40.5092 0.569427 49.3319C0.569275 58.153 7.56583 65.3317 16.1662 65.3317Z" fill="#D4C17F"/>
<path d="M22.6651 27.9983H23.324L15.8153 46.7009C14.5494 46.8783 13.5667 47.9836 13.5667 49.3316C13.5667 50.8022 14.7325 51.9983 16.1663 51.9983C17.5998 51.9983 18.7658 50.8023 18.7658 49.3316C18.7658 48.7209 18.5579 48.1663 18.2199 47.7156L25.5545 29.4462L33.7806 41.6983C34.1861 42.305 34.9934 42.4595 35.5872 42.0409C36.1799 41.6223 36.3281 40.793 35.92 40.1862L27.7368 27.9983H30.4637C32.6135 27.9983 34.3629 26.2036 34.3629 23.9983C34.3629 21.7916 32.6135 19.9983 30.4637 19.9983H22.6652C21.9464 19.9983 21.3655 20.5942 21.3655 21.3316V26.6648C21.3652 27.4011 21.9463 27.9983 22.6651 27.9983ZM23.9647 22.665H30.4635C31.1809 22.665 31.7632 23.2623 31.7632 23.9983C31.7632 24.733 31.1809 25.3316 30.4635 25.3316H23.9647V22.665Z" fill="#D4C17F"/>
<path d="M61.6575 34.665C61.6575 35.4009 62.2384 35.9983 62.9572 35.9983C70.124 35.9983 75.9546 41.9783 75.9546 49.3316C75.9546 56.6836 70.1239 62.6648 62.9572 62.6648C55.7905 62.6648 49.9597 56.6834 49.9597 49.3316C49.9597 45.3356 51.6846 41.5848 54.6947 39.0383C55.2472 38.5703 55.3264 37.7303 54.8688 37.1623C54.4127 36.5956 53.595 36.5117 53.0388 36.9811C49.4306 40.0358 47.3602 44.5358 47.3602 49.3317C47.3602 58.153 54.3568 65.3317 62.9572 65.3317C71.5576 65.3317 78.5542 58.153 78.5542 49.3317C78.5542 40.5091 71.5576 33.3317 62.9572 33.3317C62.2384 33.3317 61.6575 33.9276 61.6575 34.665Z" fill="#D4C17F"/>
<path d="M40.8614 68.0011H27.864C27.1452 68.0011 26.5643 68.5984 26.5643 69.3344C26.5643 70.0703 27.1452 70.6676 27.864 70.6676H40.8614C41.5802 70.6676 42.1611 70.0703 42.1611 69.3344C42.1613 68.5984 41.5802 68.0011 40.8614 68.0011Z" fill="#D4C17F"/>
<path d="M40.8614 42.8544V38.665C41.5802 38.665 42.1611 38.0676 42.1611 37.3317C42.1611 36.5944 41.5802 35.9984 40.8614 35.9984H38.2619C37.5431 35.9984 36.9622 36.5944 36.9622 37.3317C36.9622 38.0676 37.5431 38.665 38.2619 38.665V42.8544C36.025 43.4503 34.3626 45.5197 34.3626 47.9984C34.3626 50.4758 36.025 52.5452 38.2619 53.1425V57.3319C37.5431 57.3319 36.9622 57.9278 36.9622 58.6652C36.9622 59.4011 37.5431 59.9984 38.2619 59.9984H40.8614C41.5802 59.9984 42.1611 59.4011 42.1611 58.6652C42.1611 57.9278 41.5802 57.3319 40.8614 57.3319V53.1425C43.0983 52.5452 44.7606 50.4758 44.7606 47.9984C44.7606 45.5197 43.0983 43.4503 40.8614 42.8544ZM39.5617 50.665C38.1293 50.665 36.9622 49.4691 36.9622 47.9983C36.9622 46.5277 38.1293 45.3316 39.5617 45.3316C40.9953 45.3316 42.1613 46.5275 42.1613 47.9983C42.1613 49.4691 40.9953 50.665 39.5617 50.665Z" fill="#D4C17F"/>
<path d="M60.9543 47.6517C60.5878 48.1117 60.3576 48.6917 60.3576 49.3317C60.3576 50.8023 61.5248 51.9984 62.9572 51.9984C64.3895 51.9984 65.5567 50.8025 65.5567 49.3317C65.5567 48.0117 64.6144 46.9211 63.3875 46.7091L57.5217 30.665H66.8005C68.3563 30.665 69.261 29.3891 69.4311 28.2597L70.7296 21.593C70.8062 21.2009 70.7075 20.7944 70.4606 20.4862C70.2137 20.1769 69.8459 19.9983 69.456 19.9983H57.7582C57.0395 19.9983 56.4585 20.5942 56.4585 21.3316C56.4585 22.0675 57.0395 22.6648 57.7582 22.6648H67.8702L66.8773 27.7662C66.8578 27.8583 66.8019 27.9876 66.8007 27.9983H56.547L52.4775 16.8636C52.4749 16.8583 52.471 16.8556 52.4697 16.8503C52.4672 16.845 52.4684 16.8397 52.4672 16.8356L49.8676 10.1689C49.6012 9.48484 48.8383 9.15687 48.178 9.42624C47.5112 9.69952 47.1863 10.4756 47.4527 11.1595L49.8209 17.2275L44.9325 26.0034C44.575 26.6422 44.792 27.4567 45.4159 27.8222C45.6187 27.9408 45.8409 27.9981 46.0593 27.9981C46.5117 27.9981 46.9496 27.7569 47.1887 27.3261L51.0151 20.4581L54.1423 29.0141L44.2369 40.4447C43.7586 40.9953 43.8079 41.838 44.3447 42.3273C44.5916 42.5541 44.8997 42.6647 45.2077 42.6647C45.5652 42.6647 45.9225 42.5126 46.1786 42.2167L55.1741 31.8367L60.9543 47.6517Z" fill="#D4C17F"/>
<path d="M77.2545 68.0011H56.4584C55.7396 68.0011 55.1587 68.5984 55.1587 69.3344C55.1587 70.0703 55.7396 70.6676 56.4584 70.6676H77.2543C77.9731 70.6676 78.554 70.0703 78.554 69.3344C78.5542 68.5984 77.9732 68.0011 77.2545 68.0011Z" fill="#D4C17F"/>
<path d="M51.2594 68.0011H48.6599C47.9411 68.0011 47.3602 68.5984 47.3602 69.3344C47.3602 70.0703 47.9411 70.6676 48.6599 70.6676H51.2594C51.9782 70.6676 52.5591 70.0703 52.5591 69.3344C52.5591 68.5984 51.9782 68.0011 51.2594 68.0011Z" fill="#D4C17F"/>
</g>
<defs>
<clipPath id="clip0_5_62">
<rect width="77.9849" height="80" fill="white" transform="translate(0.569275)"/>
</clipPath>
</defs>
</svg>
