<svg width="79" height="80" viewBox="0 0 79 80" fill="none" xmlns="http://www.w3.org/2000/svg">
<g clip-path="url(#clip0_3_18)">
<path d="M56.6095 74.6667H20.2166C19.4992 74.6667 18.9169 75.2641 18.9169 76V78.6667C18.9169 79.4027 19.4992 80 20.2166 80C20.934 80 21.5163 79.4027 21.5163 78.6667V77.3334H56.6095C57.3269 77.3334 57.9092 76.7361 57.9092 76.0002C57.9092 75.2642 57.3271 74.6667 56.6095 74.6667Z" fill="#D4C17F"/>
<path d="M29.3148 33.3333C29.3148 34.0692 29.8971 34.6666 30.6145 34.6666H35.8136C36.531 34.6666 37.1133 34.0692 37.1133 33.3333V25.3333C37.1133 24.5973 36.531 24 35.8136 24H30.6147C29.8973 24 29.315 24.5973 29.315 25.3333V33.3333H29.3148ZM31.9144 26.6667H34.5139V32H31.9144V26.6667Z" fill="#D4C17F"/>
<path d="M17.6171 16H2.0201C1.3027 16 0.720398 16.5973 0.720398 17.3333V44C0.720398 44.7359 1.3027 45.3333 2.0201 45.3333C2.7375 45.3333 3.31979 44.7359 3.31979 44V18.6667H17.6171C18.3345 18.6667 18.9168 18.0694 18.9168 17.3334C18.9168 16.5975 18.3346 16 17.6171 16Z" fill="#D4C17F"/>
<path d="M63.1083 65.3333C63.1083 66.0692 63.6906 66.6666 64.408 66.6666H69.6069C70.3243 66.6666 70.9066 66.0692 70.9066 65.3333V57.3333C70.9066 56.5973 70.3243 56 69.6069 56H64.408C63.6906 56 63.1083 56.5973 63.1083 57.3333V65.3333ZM65.7079 58.6667H68.3074V64H65.7079V58.6667Z" fill="#D4C17F"/>
<path d="M7.21919 48C0.794423 48 0.720398 65.16 0.720398 65.3333C0.720398 68.5533 2.95728 71.2453 5.91934 71.8653V78.6667C5.91934 79.4027 6.50164 80 7.21904 80C7.93644 80 8.51873 79.4027 8.51873 78.6667V71.8653C11.4808 71.2453 13.7177 68.5533 13.7177 65.3333C13.7178 65.16 13.6438 48 7.21919 48ZM7.21919 69.3333C5.06943 69.3333 3.31994 67.5386 3.31994 65.3333C3.31994 58.6906 5.05907 50.6666 7.21919 50.6666C9.37931 50.6666 11.1184 58.6906 11.1184 65.3333C11.1184 67.5386 9.36895 69.3333 7.21919 69.3333Z" fill="#D4C17F"/>
<path d="M15.0177 40H9.81859C9.10119 40 8.51889 40.5973 8.51889 41.3333V44C8.51889 44.7359 9.10119 45.3333 9.81859 45.3333C10.536 45.3333 11.1183 44.7359 11.1183 44V42.6667H13.7178V49.3334C13.7178 50.0694 14.3001 50.6667 15.0175 50.6667C15.7349 50.6667 16.3172 50.0694 16.3172 49.3334V41.3334C16.3174 40.5973 15.7351 40 15.0177 40Z" fill="#D4C17F"/>
<path d="M64.408 34.6667H69.6069C70.3243 34.6667 70.9066 34.0694 70.9066 33.3334V25.3334C70.9066 24.5975 70.3243 24.0002 69.6069 24.0002H64.408C63.6906 24.0002 63.1083 24.5975 63.1083 25.3334V33.3334C63.1083 34.0694 63.6906 34.6667 64.408 34.6667ZM65.7079 26.6667H68.3074V32H65.7079V26.6667Z" fill="#D4C17F"/>
<path d="M15.0177 24H9.81859C9.10119 24 8.51889 24.5973 8.51889 25.3333V33.3333C8.51889 34.0692 9.10119 34.6666 9.81859 34.6666H15.0175C15.7349 34.6666 16.3172 34.0692 16.3172 33.3333V25.3333C16.3174 24.5973 15.7351 24 15.0177 24ZM13.7178 32H11.1184V26.6667H13.718V32H13.7178Z" fill="#D4C17F"/>
<path d="M42.3124 33.3333C42.3124 34.0692 42.8947 34.6666 43.6121 34.6666H48.811C49.5284 34.6666 50.1107 34.0692 50.1107 33.3333V25.3333C50.1107 24.5973 49.5284 24 48.811 24H43.6121C42.8947 24 42.3124 24.5973 42.3124 25.3333V33.3333ZM44.9118 26.6667H47.5113V32H44.9118V26.6667Z" fill="#D4C17F"/>
<path d="M77.4056 16H61.8086C61.0912 16 60.5089 16.5973 60.5089 17.3333C60.5089 18.0692 61.0912 18.6666 61.8086 18.6666H76.1059V72.2453C75.6978 72.0959 75.265 72 74.8062 72C74.5814 72 74.3578 72.02 74.1381 72.06C73.2413 70.4027 71.5348 69.3333 69.6073 69.3333C67.6797 69.3333 65.9732 70.4027 65.0764 72.06C64.8567 72.02 64.6331 72 64.4083 72C62.2585 72 60.5091 73.7947 60.5091 76C60.5091 78.2053 62.2585 80 64.4083 80H74.806C76.9558 80 78.7053 78.2053 78.7053 76V17.3333C78.7053 16.5973 78.123 16 77.4056 16ZM74.806 77.3333H64.408C63.6918 77.3333 63.1083 76.7347 63.1083 76C63.1083 75.2653 63.6918 74.6667 64.408 74.6667C64.6575 74.6667 64.894 74.74 65.1125 74.8841C65.4686 75.1187 65.9132 75.1614 66.3057 74.9987C66.6982 74.8361 66.9881 74.4867 67.0829 74.0641C67.3573 72.8494 68.3957 72 69.6071 72C70.8185 72 71.8569 72.8494 72.1312 74.0641C72.2261 74.4867 72.516 74.8361 72.9085 74.9987C73.2998 75.1614 73.7455 75.1187 74.1017 74.8841C74.9478 74.3241 76.1059 75.0094 76.1059 76C76.1057 76.7347 75.5222 77.3333 74.806 77.3333Z" fill="#D4C17F"/>
<path d="M43.6121 18.6667H48.811C49.5284 18.6667 50.1107 18.0694 50.1107 17.3334V9.33344C50.1107 8.5975 49.5284 8.00016 48.811 8.00016H43.6121C42.8947 8.00016 42.3124 8.5975 42.3124 9.33344V17.3334C42.3124 18.0694 42.8947 18.6667 43.6121 18.6667ZM44.9118 10.6667H47.5113V16H44.9118V10.6667Z" fill="#D4C17F"/>
<path d="M42.3124 49.3333C42.3124 50.0692 42.8947 50.6666 43.6121 50.6666H48.811C49.5284 50.6666 50.1107 50.0692 50.1107 49.3333V41.3333C50.1107 40.5973 49.5284 40 48.811 40H43.6121C42.8947 40 42.3124 40.5973 42.3124 41.3333V49.3333ZM44.9118 42.6667H47.5113V48H44.9118V42.6667Z" fill="#D4C17F"/>
<path d="M30.6147 18.6667H35.8136C36.531 18.6667 37.1133 18.0694 37.1133 17.3334V9.33344C37.1133 8.5975 36.531 8.00016 35.8136 8.00016H30.6147C29.8973 8.00016 29.315 8.5975 29.315 9.33344V17.3334C29.3148 18.0694 29.8971 18.6667 30.6147 18.6667ZM31.9144 10.6667H34.5139V16H31.9144V10.6667Z" fill="#D4C17F"/>
<path d="M38.79 64.3867C38.556 64.64 38.413 64.9867 38.413 65.3334C38.413 65.6802 38.556 66.0267 38.79 66.2802C39.0369 66.5202 39.3749 66.6669 39.7128 66.6669C40.0508 66.6669 40.3887 66.5202 40.6357 66.2802C40.8697 66.0269 41.0127 65.6802 41.0127 65.3334C41.0127 64.9867 40.8697 64.6402 40.6357 64.3867C40.1418 63.8933 39.2839 63.8933 38.79 64.3867Z" fill="#D4C17F"/>
<path d="M29.3148 49.3333C29.3148 50.0692 29.8971 50.6666 30.6145 50.6666H35.8136C36.531 50.6666 37.1133 50.0692 37.1133 49.3333V41.3333C37.1133 40.5973 36.531 40 35.8136 40H30.6147C29.8973 40 29.315 40.5973 29.315 41.3333L29.3148 49.3333ZM31.9144 42.6667H34.5139V48H31.9144V42.6667Z" fill="#D4C17F"/>
<path d="M26.7154 57.3333C26.7154 58.0692 27.2977 58.6666 28.0151 58.6666H31.9144V70.6666C31.9144 71.4025 32.4967 71.9998 33.2141 71.9998C33.9315 71.9998 34.5137 71.4025 34.5137 70.6666V58.6666H44.9118V70.6666C44.9118 71.4025 45.4941 71.9998 46.2115 71.9998C46.9289 71.9998 47.5112 71.4025 47.5112 70.6666V58.6666H51.4104C52.1278 58.6666 52.7101 58.0692 52.7101 57.3333C52.7101 56.5973 52.1278 56 51.4104 56H28.0151C27.2977 56 26.7154 56.5973 26.7154 57.3333Z" fill="#D4C17F"/>
<path d="M63.1083 49.3333C63.1083 50.0692 63.6906 50.6666 64.408 50.6666H69.6069C70.3243 50.6666 70.9066 50.0692 70.9066 49.3333V41.3333C70.9066 40.5973 70.3243 40 69.6069 40H64.408C63.6906 40 63.1083 40.5973 63.1083 41.3333V49.3333ZM65.7079 42.6667H68.3074V48H65.7079V42.6667Z" fill="#D4C17F"/>
<path d="M56.6095 0H22.8162C22.0988 0 21.5165 0.597344 21.5165 1.33328V70.6666C21.5165 71.4025 22.0988 71.9998 22.8162 71.9998C23.5336 71.9998 24.1159 71.4025 24.1159 70.6666V2.66656H55.3098V70.6666C55.3098 71.4025 55.8921 71.9998 56.6095 71.9998C57.3269 71.9998 57.9092 71.4025 57.9092 70.6666V1.33328C57.9094 0.597344 57.3271 0 56.6095 0Z" fill="#D4C17F"/>
</g>
<defs>
<clipPath id="clip0_3_18">
<rect width="77.9849" height="80" fill="white" transform="translate(0.720398)"/>
</clipPath>
</defs>
</svg>
