<svg width="79" height="80" viewBox="0 0 79 80" fill="none" xmlns="http://www.w3.org/2000/svg">
<g clip-path="url(#clip0_5_2)">
<path d="M52.6263 4.62187C52.8044 4.62187 52.9838 4.58452 53.1567 4.50452C53.5283 4.3339 53.9053 4.17249 54.2875 4.02453C54.9595 3.76187 55.2973 2.9925 55.0413 2.30453C54.7864 1.61516 54.0352 1.27391 53.3658 1.52984C52.9355 1.69781 52.5106 1.87922 52.0934 2.07125C51.4383 2.37265 51.1446 3.16187 51.4396 3.8339C51.6555 4.32843 52.1286 4.62187 52.6263 4.62187Z" fill="#D4C17F"/>
<path d="M52.5718 33.5377C53.2906 33.5377 53.8715 32.9418 53.8715 32.2045V31.9738C53.8715 31.6232 53.8936 31.2791 53.9365 30.9406C54.03 30.2099 53.5283 29.5406 52.8187 29.4446C52.0856 29.3487 51.454 29.8632 51.3591 30.5926C51.302 31.0432 51.2719 31.5085 51.2719 31.974V32.2046C51.2721 32.9418 51.853 33.5377 52.5718 33.5377Z" fill="#D4C17F"/>
<path d="M46.073 33.8671C46.7918 33.8671 47.3727 33.2698 47.3727 32.5338V31.1792C47.3727 30.4432 46.7918 29.8459 46.073 29.8459C45.3542 29.8459 44.7733 30.4432 44.7733 31.1792V32.5338C44.7733 33.2698 45.3542 33.8671 46.073 33.8671Z" fill="#D4C17F"/>
<path d="M53.5362 12.7778C53.1177 13.0137 52.7083 13.2684 52.3145 13.5392C51.7179 13.9486 51.5568 14.7778 51.9558 15.3898C52.2067 15.7739 52.6187 15.9804 53.0373 15.9804C53.2867 15.9804 53.5376 15.9084 53.7586 15.7551C54.0926 15.5271 54.437 15.3125 54.7905 15.1125C55.4184 14.7578 55.6484 13.9457 55.3026 13.3018C54.9555 12.6565 54.1665 12.4245 53.5362 12.7778Z" fill="#D4C17F"/>
<path d="M35.1006 12.6419C35.3463 13.0445 35.7687 13.2659 36.2016 13.2659C36.4381 13.2659 36.6772 13.2006 36.8905 13.0619C37.4988 12.6698 37.6833 11.8472 37.3013 11.2245C37.0556 10.8231 36.8009 10.4312 36.5331 10.0472C36.116 9.44858 35.3063 9.30858 34.72 9.73921C34.1351 10.1686 34.0012 11.0006 34.4184 11.5992C34.656 11.9392 34.8836 12.2872 35.1006 12.6419Z" fill="#D4C17F"/>
<path d="M58.8639 2.82187C58.9172 2.82187 58.9731 2.8178 59.0276 2.81124C59.4293 2.75921 59.8361 2.71921 60.2467 2.68984C60.9641 2.64046 61.5049 2.00578 61.4581 1.27125C61.4113 0.536559 60.7823 -0.0193774 60.0752 0.0298413C59.6125 0.0604662 59.155 0.107185 58.7027 0.165779C57.9905 0.25781 57.4848 0.924371 57.5759 1.65515C57.6577 2.32843 58.2179 2.82187 58.8639 2.82187Z" fill="#D4C17F"/>
<path d="M54.0444 24.7218C53.557 25.2618 53.5868 26.1059 54.112 26.6059C54.3642 26.8445 54.68 26.9618 54.9971 26.9618C55.3467 26.9618 55.6938 26.8192 55.951 26.5351C56.2214 26.2365 56.519 25.9537 56.8361 25.6951C57.3989 25.2365 57.4924 24.3978 57.0454 23.8218C56.5996 23.2459 55.7807 23.1471 55.2193 23.6071C54.7995 23.9484 54.4044 24.3245 54.0444 24.7218Z" fill="#D4C17F"/>
<path d="M42.2569 13.0619C42.4714 13.2005 42.7105 13.2659 42.9471 13.2659C43.38 13.2659 43.8023 13.0445 44.048 12.6419C44.2651 12.2872 44.4925 11.9392 44.7304 11.5992C45.1476 11.0006 45.0137 10.1686 44.4288 9.73921C43.8425 9.30858 43.0328 9.44858 42.6156 10.0472C42.3479 10.4312 42.0918 10.8231 41.8475 11.2245C41.4655 11.8472 41.65 12.6698 42.2569 13.0619Z" fill="#D4C17F"/>
<path d="M52.5718 39.9738C53.2906 39.9738 53.8715 39.3765 53.8715 38.6405V37.9738C53.8715 37.2379 53.2906 36.6405 52.5718 36.6405C51.853 36.6405 51.2721 37.2379 51.2721 37.9738V38.6405C51.2721 39.3765 51.853 39.9738 52.5718 39.9738Z" fill="#D4C17F"/>
<path d="M46.0458 27.091C46.1056 27.1004 46.1641 27.1043 46.2226 27.1043C46.862 27.1043 47.421 26.619 47.5106 25.9496C47.5639 25.539 47.6353 25.1337 47.7237 24.7337C47.8836 24.0151 47.4442 23.3017 46.7437 23.139C46.0432 22.9764 45.3465 23.4257 45.1879 24.1443C45.0839 24.6203 44.9982 25.1029 44.9331 25.591C44.837 26.3204 45.3361 26.9924 46.0458 27.091Z" fill="#D4C17F"/>
<path d="M37.1971 17.1792C37.327 17.5739 37.444 17.9724 37.552 18.3778C37.7093 18.971 38.2343 19.3618 38.8049 19.3618C38.9179 19.3618 39.0323 19.3459 39.1467 19.3139C39.3078 19.2698 39.4483 19.1898 39.5742 19.0953C39.7004 19.1899 39.8406 19.2699 40.0018 19.3139C40.1162 19.3459 40.2306 19.3618 40.3436 19.3618C40.9142 19.3618 41.4393 18.9712 41.5965 18.3778C41.7044 17.9724 41.8201 17.5737 41.9514 17.1792C42.184 16.4818 41.8189 15.7245 41.1403 15.4871C40.5165 15.2686 39.8588 15.5818 39.5741 16.1739C39.2894 15.5818 38.6317 15.2686 38.0078 15.4871C37.3284 15.7245 36.9645 16.4818 37.1971 17.1792Z" fill="#D4C17F"/>
<path d="M47.1636 8.20841C47.4664 8.20841 47.7706 8.10044 48.0162 7.88169C48.3242 7.607 48.6401 7.34029 48.9624 7.08575C49.5318 6.63638 49.637 5.80044 49.2003 5.21638C48.7623 4.63232 47.946 4.5217 47.378 4.97232C47.0128 5.26029 46.6567 5.55904 46.3109 5.86966C45.769 6.35232 45.7117 7.19497 46.1836 7.75107C46.4396 8.05388 46.8009 8.20841 47.1636 8.20841Z" fill="#D4C17F"/>
<path d="M48.1734 17.5418C47.8875 17.9312 47.6172 18.3339 47.3637 18.7471C46.9803 19.3698 47.1636 20.1938 47.7706 20.5871C47.9864 20.7245 48.2241 20.7912 48.4621 20.7912C48.8936 20.7912 49.3159 20.5712 49.563 20.1685C49.7788 19.8179 50.0074 19.4765 50.2505 19.1471C50.682 18.5592 50.5677 17.7231 49.9945 17.2792C49.42 16.8351 48.6049 16.9565 48.1734 17.5418Z" fill="#D4C17F"/>
<path d="M60.3404 10.6939C59.8596 10.7312 59.3865 10.7898 58.9198 10.8686C58.2114 10.9886 57.7319 11.6753 57.8489 12.4018C57.9529 13.0551 58.5026 13.5178 59.1291 13.5178C59.1993 13.5178 59.2695 13.5125 59.3409 13.5004C59.7374 13.4337 60.1363 13.3845 60.5406 13.3525C61.2567 13.2951 61.7923 12.6539 61.7364 11.9192C61.6803 11.1858 61.0708 10.6312 60.3404 10.6939Z" fill="#D4C17F"/>
<path d="M65.1494 2.92046C65.5537 2.98718 65.9565 3.06578 66.3542 3.15515C66.4491 3.17656 66.5414 3.18578 66.6337 3.18578C67.2315 3.18578 67.7684 2.76171 67.9023 2.13906C68.0557 1.41906 67.6125 0.708438 66.9106 0.551094C66.4636 0.449844 66.0138 0.363126 65.5576 0.288438C64.8492 0.168439 64.1837 0.668438 64.0707 1.39516C63.9576 2.12187 64.4398 2.80578 65.1494 2.92046Z" fill="#D4C17F"/>
<path d="M67.3732 11.6525C66.9248 11.4884 66.4686 11.3418 66.0071 11.2165C65.317 11.0325 64.6034 11.4525 64.4176 12.1645C64.2343 12.8765 64.6475 13.6057 65.3416 13.7951C65.7329 13.9004 66.1175 14.0231 66.4945 14.1631C66.6401 14.2164 66.7869 14.2417 66.9338 14.2417C67.4667 14.2417 67.9671 13.9017 68.1569 13.3576C68.4001 12.6645 68.0478 11.9004 67.3732 11.6525Z" fill="#D4C17F"/>
<path d="M61.141 21.3204C60.4236 21.3578 59.8711 21.9831 59.9075 22.7178C59.9426 23.4537 60.5054 24.0137 61.2697 23.9831C61.6687 23.9631 62.0807 23.9751 62.4758 24.0164C62.5214 24.0217 62.5668 24.0231 62.6111 24.0231C63.27 24.0231 63.8328 23.5125 63.903 22.8271C63.9758 22.0939 63.456 21.4392 62.7424 21.3631C62.2158 21.3084 61.6713 21.2912 61.141 21.3204Z" fill="#D4C17F"/>
<path d="M76.3064 8.87247C76.5625 9.16044 76.9148 9.30716 77.2669 9.30716C77.5802 9.30716 77.8934 9.19247 78.1429 8.95919C78.6732 8.46325 78.7109 7.61919 78.2274 7.07513C78.0714 6.90045 77.9129 6.72841 77.753 6.56045C77.2486 6.03373 76.4272 6.02717 75.9151 6.5417C75.4005 7.05638 75.3939 7.90029 75.8943 8.427C76.0348 8.57247 76.1725 8.72185 76.3064 8.87247Z" fill="#D4C17F"/>
<path d="M56.471 50.6404H40.8741C40.1553 50.6404 39.5744 51.2377 39.5744 51.9736C39.5744 52.7096 40.1553 53.3069 40.8741 53.3069H56.471C60.1154 53.3069 62.9698 50.379 62.9698 46.6402V43.9735C62.9698 43.2376 62.3889 42.6402 61.6701 42.6402H17.4787C16.7599 42.6402 16.179 43.2376 16.179 43.9735V46.6402C16.179 50.3788 19.0332 53.3069 22.6777 53.3069H34.3755V59.9736C34.3755 60.7096 34.9564 61.3069 35.6752 61.3069C36.3939 61.3069 36.9748 60.7096 36.9748 59.9736V51.9736C36.9748 51.2377 36.3939 50.6404 35.6752 50.6404H22.6777C20.4902 50.6404 18.7785 48.883 18.7785 46.6404V45.3071H60.3704V46.6404C60.3703 48.883 58.6584 50.6404 56.471 50.6404Z" fill="#D4C17F"/>
<path d="M69.4489 31.4018C69.4619 31.5898 69.4684 31.7818 69.4684 31.9738C69.4684 32.7098 70.0493 33.3071 70.7681 33.3071C71.4869 33.3071 72.0678 32.7098 72.0678 31.9738C72.0678 31.7179 72.0587 31.4645 72.0406 31.2124C71.9898 30.4792 71.3816 29.9245 70.6524 29.9765C69.9363 30.0298 69.3982 30.6671 69.4489 31.4018Z" fill="#D4C17F"/>
<path d="M66.7039 24.0831C66.2295 24.6364 66.2816 25.4778 66.8196 25.9657C67.1211 26.2378 67.4031 26.5351 67.6579 26.8498C67.9165 27.1671 68.2857 27.3298 68.6588 27.3298C68.9512 27.3298 69.2462 27.2285 69.4893 27.0218C70.0404 26.5498 70.1158 25.7098 69.6557 25.1432C69.3164 24.7245 68.9395 24.3273 68.5378 23.9645C68.0011 23.4792 67.1796 23.5298 66.7039 24.0831Z" fill="#D4C17F"/>
<path d="M40.8741 30.5657C40.8741 29.8298 40.2932 29.2324 39.5744 29.2324C38.8556 29.2324 38.2747 29.8298 38.2747 30.5657V32.0484C38.2747 32.7843 38.8556 33.3816 39.5744 33.3816C40.2932 33.3816 40.8741 32.7843 40.8741 32.0484V30.5657Z" fill="#D4C17F"/>
<path d="M39.5744 36.6404C38.8556 36.6404 38.2747 37.2377 38.2747 37.9737V38.6404C38.2747 39.3763 38.8556 39.9737 39.5744 39.9737C40.2932 39.9737 40.8741 39.3763 40.8741 38.6404V37.9737C40.8741 37.2377 40.293 36.6404 39.5744 36.6404Z" fill="#D4C17F"/>
<path d="M44.7733 38.6404C44.7733 39.3763 45.3542 39.9737 46.073 39.9737C46.7918 39.9737 47.3727 39.3763 47.3727 38.6404V37.9737C47.3727 37.2377 46.7918 36.6404 46.073 36.6404C45.3542 36.6404 44.7733 37.2377 44.7733 37.9737V38.6404Z" fill="#D4C17F"/>
<path d="M40.8741 23.9739C40.8741 23.7632 40.8767 23.5553 40.8832 23.3459C40.8987 22.7765 40.5595 22.2873 40.0735 22.0832C40.0242 22.0606 39.9683 22.0606 39.9162 22.0446C39.8187 22.0179 39.7264 21.9779 39.6212 21.9753C39.6082 21.9739 39.5965 21.9739 39.5822 21.9739C39.5796 21.9739 39.577 21.9753 39.5744 21.9753C39.5718 21.9753 39.5692 21.9739 39.5666 21.9739C39.5523 21.9739 39.5406 21.9739 39.5276 21.9753C39.4224 21.9779 39.3287 22.0179 39.2326 22.0446C39.1807 22.0606 39.1234 22.0606 39.0753 22.0832C38.5892 22.2873 38.2499 22.7765 38.2656 23.3459C38.2721 23.5553 38.2747 23.7632 38.2747 23.9739V24.6406C38.2747 25.3765 38.8556 25.9738 39.5744 25.9738C40.2932 25.9738 40.8741 25.3765 40.8741 24.6406V23.9739V23.9739Z" fill="#D4C17F"/>
<path d="M31.7759 38.6404C31.7759 39.3763 32.3568 39.9737 33.0756 39.9737C33.7944 39.9737 34.3753 39.3763 34.3753 38.6404V37.9737C34.3753 37.2377 33.7944 36.6404 33.0756 36.6404C32.3568 36.6404 31.7759 37.2377 31.7759 37.9737V38.6404Z" fill="#D4C17F"/>
<path d="M33.0756 33.8671C33.7944 33.8671 34.3753 33.2698 34.3753 32.5338V31.1792C34.3753 30.4432 33.7944 29.8459 33.0756 29.8459C32.3568 29.8459 31.7759 30.4432 31.7759 31.1792V32.5338C31.7759 33.2698 32.3568 33.8671 33.0756 33.8671Z" fill="#D4C17F"/>
<path d="M27.8767 38.6404V37.9737C27.8767 37.2377 27.2957 36.6404 26.577 36.6404C25.8582 36.6404 25.2773 37.2377 25.2773 37.9737V38.6404C25.2773 39.3763 25.8582 39.9737 26.577 39.9737C27.2957 39.9737 27.8767 39.3765 27.8767 38.6404Z" fill="#D4C17F"/>
<path d="M9.65933 27.0218C9.90242 27.2285 10.1961 27.3298 10.4899 27.3298C10.8629 27.3298 11.2321 27.1671 11.4907 26.8498C11.7456 26.5351 12.0275 26.2378 12.3291 25.9657C12.8672 25.4778 12.9191 24.6364 12.4447 24.0831C11.9716 23.5298 11.1502 23.4764 10.6107 23.9643C10.209 24.327 9.83205 24.7243 9.49163 25.1431C9.03286 25.7098 9.10826 26.5498 9.65933 27.0218Z" fill="#D4C17F"/>
<path d="M72.068 63.9738H44.7733V57.3071C44.7733 56.5711 44.1924 55.9738 43.4736 55.9738C42.7549 55.9738 42.1739 56.5711 42.1739 57.3071V65.3071C42.1739 66.043 42.7549 66.6403 43.4736 66.6403H70.7683V73.307C70.7683 75.5123 69.0188 77.307 66.869 77.307H12.2797C10.13 77.307 8.3805 75.5123 8.3805 73.307V66.6403H38.3825C39.1013 66.6403 39.6822 66.043 39.6822 65.3071C39.6822 64.5711 39.1013 63.9738 38.3825 63.9738H7.08065C6.36189 63.9738 5.78096 64.5711 5.78096 65.3071V73.307C5.78096 76.983 8.69625 79.9738 12.2797 79.9738H66.869C70.4524 79.9738 73.3678 76.9831 73.3678 73.307V65.3071C73.3677 64.5711 72.7867 63.9738 72.068 63.9738Z" fill="#D4C17F"/>
<path d="M31.7759 70.6403V73.307C31.7759 74.043 32.3568 74.6403 33.0756 74.6403C33.7944 74.6403 34.3753 74.043 34.3753 73.307V70.6403C34.3753 69.9044 33.7944 69.3071 33.0756 69.3071C32.3568 69.3071 31.7759 69.9044 31.7759 70.6403Z" fill="#D4C17F"/>
<path d="M1.94021 25.9751C1.92468 25.9737 1.90899 25.9737 1.89345 25.9737C1.19814 25.9737 0.619653 26.5404 0.596349 27.2604C0.58721 27.4978 0.582031 27.7351 0.582031 27.9737C0.582031 28.7096 1.16296 29.307 1.88173 29.307C2.6005 29.307 3.18142 28.7096 3.18142 27.9737C3.18142 27.7657 3.1866 27.5604 3.19315 27.3537C3.21782 26.6178 2.65761 26.0004 1.94021 25.9751Z" fill="#D4C17F"/>
<path d="M7.55511 17.4139C7.84618 17.1259 8.14913 16.8512 8.46107 16.5898C9.01732 16.1231 9.10049 15.2831 8.64568 14.7139C8.19209 14.1445 7.37325 14.0565 6.817 14.5245C6.44916 14.8339 6.09168 15.1578 5.75125 15.4965C5.234 16.0072 5.21968 16.8512 5.71744 17.3818C5.97226 17.6525 6.31268 17.7886 6.65326 17.7886C6.97799 17.7884 7.30425 17.6645 7.55511 17.4139Z" fill="#D4C17F"/>
<path d="M4.11861 19.6031C3.47783 19.2751 2.69402 19.539 2.37431 20.1978C2.16122 20.6325 1.96352 21.0792 1.78684 21.5337C1.52044 22.219 1.84532 22.9937 2.51078 23.267C2.66934 23.3323 2.83186 23.3629 2.99301 23.3629C3.50905 23.3629 3.99767 23.0456 4.2004 22.5243C4.34982 22.139 4.5163 21.7617 4.69695 21.3923C5.01924 20.7339 4.76061 19.9339 4.11861 19.6031Z" fill="#D4C17F"/>
<path d="M6.45937 5.5631C6.679 5.5631 6.9026 5.50576 7.1067 5.38576C7.459 5.17779 7.81633 4.98169 8.18158 4.79904C8.82496 4.47373 9.09013 3.67373 8.77424 3.01373C8.45712 2.35232 7.6759 2.0817 7.0339 2.40576C6.61793 2.61514 6.20988 2.83779 5.8096 3.07373C5.18831 3.4417 4.97385 4.25638 5.33255 4.89513C5.57305 5.3231 6.01096 5.5631 6.45937 5.5631Z" fill="#D4C17F"/>
<path d="M18.7784 70.6403V73.307C18.7784 74.043 19.3593 74.6403 20.0781 74.6403C20.7968 74.6403 21.3778 74.043 21.3778 73.307V70.6403C21.3778 69.9044 20.7968 69.3071 20.0781 69.3071C19.3593 69.3071 18.7784 69.9044 18.7784 70.6403Z" fill="#D4C17F"/>
<path d="M76.6378 23.2671C77.3033 22.9938 77.6282 22.2192 77.3618 21.5339C77.1849 21.0792 76.9874 20.6325 76.7743 20.1979C76.4532 19.5393 75.6722 19.2765 75.03 19.6032C74.388 19.9339 74.1292 20.7339 74.4517 21.3926C74.6323 21.762 74.7986 22.1393 74.9482 22.5246C75.1509 23.046 75.6397 23.3632 76.1544 23.3632C76.3168 23.3631 76.4793 23.3324 76.6378 23.2671Z" fill="#D4C17F"/>
<path d="M78.5524 27.2604C78.529 26.5231 77.8921 25.9324 77.2086 25.9751C76.4912 26.0004 75.9309 26.6178 75.9556 27.3537C75.9622 27.5604 75.9673 27.7657 75.9673 27.9737C75.9673 28.7096 76.5483 29.307 77.267 29.307C77.9858 29.307 78.5667 28.7096 78.5667 27.9737C78.5667 27.7351 78.5614 27.4978 78.5524 27.2604Z" fill="#D4C17F"/>
<path d="M73.3378 3.0739C72.9387 2.83796 72.5307 2.6153 72.1147 2.40593C71.4753 2.08327 70.6915 2.3539 70.3744 3.0139C70.0585 3.6739 70.3237 4.47389 70.967 4.79921C71.3323 4.98186 71.6898 5.17796 72.0407 5.38592C72.246 5.50592 72.4696 5.56327 72.688 5.56327C73.1378 5.56327 73.5757 5.32327 73.8162 4.8953C74.1748 4.25655 73.9603 3.44187 73.3378 3.0739Z" fill="#D4C17F"/>
<path d="M60.3703 73.307V70.6403C60.3703 69.9044 59.7893 69.3071 59.0706 69.3071C58.3518 69.3071 57.7709 69.9044 57.7709 70.6403V73.307C57.7709 74.043 58.3518 74.6403 59.0706 74.6403C59.7893 74.6403 60.3703 74.043 60.3703 73.307Z" fill="#D4C17F"/>
<path d="M47.3729 73.307V70.6403C47.3729 69.9044 46.7919 69.3071 46.0732 69.3071C45.3544 69.3071 44.7735 69.9044 44.7735 70.6403V73.307C44.7735 74.043 45.3544 74.6403 46.0732 74.6403C46.7918 74.6403 47.3729 74.043 47.3729 73.307Z" fill="#D4C17F"/>
<path d="M72.3318 14.5245C71.7742 14.0565 70.9553 14.1445 70.5031 14.7139C70.0481 15.2833 70.1313 16.1233 70.6863 16.5898C70.9996 16.8512 71.3024 17.1258 71.5935 17.4139C71.8444 17.6645 72.1706 17.7886 72.4955 17.7886C72.8361 17.7886 73.1753 17.6526 73.4313 17.3818C73.9291 16.8512 73.9148 16.0072 73.3975 15.4965C73.0571 15.1578 72.6996 14.8339 72.3318 14.5245Z" fill="#D4C17F"/>
<path d="M8.49611 29.9765C7.75389 29.9259 7.15864 30.4792 7.1067 31.2124C7.0898 31.4645 7.08066 31.7177 7.08066 31.9738C7.08066 32.7098 7.66158 33.3071 8.38035 33.3071C9.09912 33.3071 9.68005 32.7098 9.68005 31.9738C9.68005 31.7818 9.6866 31.5898 9.69954 31.4018C9.75042 30.6671 9.21229 30.0298 8.49611 29.9765Z" fill="#D4C17F"/>
<path d="M26.3299 29.4445C25.6203 29.5404 25.1186 30.2098 25.2121 30.9404C25.2551 31.279 25.2771 31.6231 25.2771 31.9737V32.2043C25.2771 32.9416 25.8581 33.5376 26.5768 33.5376C27.2956 33.5376 27.8765 32.9416 27.8765 32.2043V31.9737C27.8765 31.5084 27.8479 31.0431 27.7894 30.5923C27.6947 29.8631 27.0551 29.3471 26.3299 29.4445Z" fill="#D4C17F"/>
<path d="M24.8612 4.02453C25.2433 4.17249 25.6201 4.3339 25.9919 4.50452C26.1648 4.58452 26.3442 4.62187 26.5223 4.62187C27.0188 4.62187 27.4932 4.32859 27.709 3.8339C28.004 3.16187 27.7104 2.3725 27.0552 2.07125C26.6381 1.87922 26.213 1.69797 25.7828 1.52984C25.116 1.27391 24.3622 1.61516 24.1075 2.30453C23.8513 2.9925 24.1892 3.76187 24.8612 4.02453Z" fill="#D4C17F"/>
<path d="M24.3582 15.1125C24.7105 15.3125 25.0561 15.5271 25.3902 15.7551C25.6124 15.9084 25.862 15.9804 26.1115 15.9804C26.5301 15.9804 26.9421 15.7737 27.1929 15.3898C27.592 14.7778 27.4309 13.9486 26.8342 13.5392C26.4391 13.2686 26.0309 13.0139 25.6125 12.7778C24.9821 12.4245 24.1933 12.6565 23.8462 13.3018C23.5004 13.9457 23.7304 14.7578 24.3582 15.1125Z" fill="#D4C17F"/>
<path d="M1.88172 9.30717C2.23402 9.30717 2.58617 9.16045 2.84221 8.87248C2.97609 8.72186 3.11394 8.57248 3.25422 8.42717C3.75457 7.90045 3.7468 7.05655 3.23335 6.54186C2.72249 6.02718 1.90106 6.03655 1.39553 6.56061C1.2356 6.72858 1.07704 6.90061 0.921075 7.0753C0.43763 7.61936 0.475252 8.46326 1.00561 8.95936C1.25525 9.19248 1.56841 9.30717 1.88172 9.30717Z" fill="#D4C17F"/>
<path d="M22.3124 25.6951C22.6295 25.9537 22.9271 26.2365 23.1975 26.5351C23.4549 26.8192 23.8018 26.9618 24.1514 26.9618C24.4673 26.9618 24.7844 26.8445 25.0365 26.6059C25.5617 26.1059 25.5915 25.2618 25.1041 24.7218C24.7441 24.3245 24.349 23.9485 23.9292 23.6071C23.3638 23.1485 22.5475 23.2457 22.1031 23.8218C21.656 24.3978 21.7496 25.2365 22.3124 25.6951Z" fill="#D4C17F"/>
<path d="M29.5858 20.1684C29.8327 20.5711 30.2552 20.7911 30.6867 20.7911C30.9246 20.7911 31.1624 20.7243 31.3782 20.587C31.9852 20.1937 32.1684 19.3696 31.7851 18.747C31.5302 18.3337 31.2599 17.9311 30.9754 17.5417C30.5425 16.9564 29.729 16.835 29.1544 17.279C28.5813 17.7231 28.4669 18.559 28.8984 19.147C29.1412 19.4765 29.37 19.8178 29.5858 20.1684Z" fill="#D4C17F"/>
<path d="M30.1862 7.08575C30.5085 7.34044 30.8244 7.60716 31.1324 7.88169C31.3781 8.10169 31.6822 8.20841 31.985 8.20841C32.3477 8.20841 32.709 8.05372 32.965 7.75107C33.4369 7.19513 33.3796 6.35247 32.8377 5.86966C32.4919 5.55904 32.1358 5.26029 31.7706 4.97232C31.2026 4.5217 30.3877 4.63232 29.9483 5.21638C29.5116 5.80044 29.617 6.63654 30.1862 7.08575Z" fill="#D4C17F"/>
<path d="M12.5149 3.18578C12.6072 3.18578 12.6995 3.17641 12.793 3.15516C13.1921 3.06578 13.595 2.98719 13.9992 2.92047C14.7088 2.80578 15.1911 2.12188 15.078 1.39516C14.9662 0.668445 14.3022 0.167195 13.5912 0.288445C13.135 0.363133 12.684 0.449851 12.2382 0.551101C11.5363 0.708444 11.0931 1.41907 11.2464 2.13907C11.3802 2.76188 11.9171 3.18578 12.5149 3.18578Z" fill="#D4C17F"/>
<path d="M18.9019 2.68983C19.3127 2.71921 19.7194 2.75921 20.121 2.81124C20.1755 2.81796 20.2314 2.82186 20.2848 2.82186C20.9307 2.82186 21.4909 2.32858 21.5727 1.65515C21.6637 0.924524 21.1581 0.257806 20.4459 0.165775C19.9935 0.107181 19.5361 0.0604626 19.0746 0.0298376C18.3741 -0.0234435 17.7372 0.536555 17.6904 1.27124C17.6438 2.00577 18.1843 2.64046 18.9019 2.68983Z" fill="#D4C17F"/>
<path d="M32.405 23.1392C31.7045 23.3018 31.2651 24.0151 31.4236 24.7338C31.5133 25.1338 31.5835 25.5392 31.6381 25.9498C31.7278 26.6191 32.2854 27.1045 32.9262 27.1045C32.9847 27.1045 33.0432 27.1004 33.1017 27.0912C33.8127 26.9926 34.3118 26.3206 34.2155 25.5912C34.1505 25.1032 34.0647 24.6206 33.9607 24.1445C33.8021 23.4271 33.1017 22.9778 32.405 23.1392Z" fill="#D4C17F"/>
<path d="M12.2147 14.2418C12.3603 14.2418 12.5085 14.2165 12.654 14.1632C13.0309 14.0232 13.4157 13.9006 13.8068 13.7953C14.5009 13.6059 14.9142 12.8767 14.7309 12.1647C14.5463 11.4526 13.8341 11.0326 13.1414 11.2167C12.68 11.342 12.2237 11.4887 11.7753 11.6526C11.1007 11.9006 10.7485 12.6647 10.9915 13.3579C11.1814 13.9018 11.6818 14.2418 12.2147 14.2418Z" fill="#D4C17F"/>
<path d="M18.6081 13.3525C19.0123 13.3845 19.4114 13.4339 19.8077 13.5004C19.8791 13.5125 19.9494 13.5178 20.0196 13.5178C20.6448 13.5178 21.1959 13.0551 21.2998 12.4019C21.4167 11.6751 20.9371 10.9886 20.2289 10.8686C19.7623 10.79 19.2891 10.7312 18.8082 10.6939C18.1012 10.6298 17.4682 11.1845 17.4123 11.9192C17.3565 12.6539 17.8919 13.2951 18.6081 13.3525Z" fill="#D4C17F"/>
<path d="M16.5377 24.0231C16.5819 24.0231 16.6274 24.0217 16.6728 24.0164C17.0679 23.975 17.4799 23.9631 17.879 23.9831C18.6264 24.0178 19.2061 23.4537 19.2411 22.7178C19.2775 21.9831 18.7251 21.3578 18.0077 21.3204C17.4761 21.291 16.9314 21.3084 16.4064 21.3631C15.6928 21.439 15.173 22.0937 15.2458 22.8271C15.3158 23.5125 15.8786 24.0231 16.5377 24.0231Z" fill="#D4C17F"/>
</g>
<defs>
<clipPath id="clip0_5_2">
<rect width="77.9849" height="80" fill="white" transform="translate(0.581879)"/>
</clipPath>
</defs>
</svg>
